<svg width="80" height="80" viewBox="0 0 80 80" fill="none" xmlns="http://www.w3.org/2000/svg">
<g opacity="0.5" filter="url(#filter0_f_69_8622)">
<mask id="mask0_69_8622" style="mask-type:luminance" maskUnits="userSpaceOnUse" x="14" y="15" width="45" height="45">
<path d="M59 15H14V60H59V15Z" fill="white"/>
</mask>
<g mask="url(#mask0_69_8622)">
<path d="M36.5 59.325C48.5536 59.325 58.325 49.5536 58.325 37.5C58.325 25.4464 48.5536 15.675 36.5 15.675C24.4464 15.675 14.675 25.4464 14.675 37.5C14.675 49.5536 24.4464 59.325 36.5 59.325Z" fill="url(#paint0_linear_69_8622)"/>
<path d="M46.0512 46.1963L38.6712 28.3538C38.255 27.4313 37.6362 26.9813 36.8206 26.9813H36.1681C35.3525 26.9813 34.7337 27.4313 34.3175 28.3538L31.1056 36.1275H28.6756C27.95 36.1331 27.3594 36.7181 27.3537 37.4494V37.4663C27.3594 38.1919 27.95 38.7825 28.6756 38.7881H29.9806L26.915 46.1963C26.8587 46.3594 26.825 46.5281 26.825 46.7025C26.825 47.1188 26.9544 47.445 27.185 47.6981C27.4156 47.9513 27.7475 48.075 28.1637 48.075C28.4394 48.0694 28.7037 47.985 28.9231 47.8219C29.1594 47.6588 29.3225 47.4225 29.4519 47.1525L32.8269 38.7825H35.1669C35.8925 38.7769 36.4831 38.1919 36.4887 37.4606V37.4269C36.4831 36.7013 35.8925 36.1106 35.1669 36.105H33.9181L36.4944 29.6869L43.5144 47.1469C43.6437 47.4169 43.8069 47.6531 44.0431 47.8163C44.2625 47.9794 44.5325 48.0638 44.8025 48.0694C45.2187 48.0694 45.545 47.9456 45.7812 47.6925C46.0175 47.4394 46.1413 47.1131 46.1413 46.6969C46.1469 46.5281 46.1187 46.3538 46.0512 46.1963Z" fill="white"/>
</g>
</g>
<mask id="mask1_69_8622" style="mask-type:luminance" maskUnits="userSpaceOnUse" x="18" y="18" width="45" height="45">
<path d="M63 18H18V63H63V18Z" fill="white"/>
</mask>
<g mask="url(#mask1_69_8622)">
<path d="M40.5 62.325C52.5536 62.325 62.325 52.5536 62.325 40.5C62.325 28.4464 52.5536 18.675 40.5 18.675C28.4464 18.675 18.675 28.4464 18.675 40.5C18.675 52.5536 28.4464 62.325 40.5 62.325Z" fill="url(#paint1_linear_69_8622)"/>
<path d="M50.0512 49.1963L42.6712 31.3538C42.255 30.4313 41.6362 29.9813 40.8206 29.9813H40.1681C39.3525 29.9813 38.7337 30.4313 38.3175 31.3538L35.1056 39.1275H32.6756C31.95 39.1331 31.3594 39.7181 31.3537 40.4494V40.4663C31.3594 41.1919 31.95 41.7825 32.6756 41.7881H33.9806L30.915 49.1963C30.8587 49.3594 30.825 49.5281 30.825 49.7025C30.825 50.1188 30.9544 50.445 31.185 50.6981C31.4156 50.9513 31.7475 51.075 32.1637 51.075C32.4394 51.0694 32.7037 50.985 32.9231 50.8219C33.1594 50.6588 33.3225 50.4225 33.4519 50.1525L36.8269 41.7825H39.1669C39.8925 41.7769 40.4831 41.1919 40.4887 40.4606V40.4269C40.4831 39.7013 39.8925 39.1106 39.1669 39.105H37.9181L40.4944 32.6869L47.5144 50.1469C47.6437 50.4169 47.8069 50.6531 48.0431 50.8163C48.2625 50.9794 48.5325 51.0638 48.8025 51.0694C49.2187 51.0694 49.545 50.9456 49.7812 50.6925C50.0175 50.4394 50.1413 50.1131 50.1413 49.6969C50.1469 49.5281 50.1187 49.3538 50.0512 49.1963Z" fill="white"/>
</g>
<defs>
<filter id="filter0_f_69_8622" x="6.675" y="7.67499" width="59.65" height="59.65" filterUnits="userSpaceOnUse" color-interpolation-filters="sRGB">
<feFlood flood-opacity="0" result="BackgroundImageFix"/>
<feBlend mode="normal" in="SourceGraphic" in2="BackgroundImageFix" result="shape"/>
<feGaussianBlur stdDeviation="4" result="effect1_foregroundBlur_69_8622"/>
</filter>
<linearGradient id="paint0_linear_69_8622" x1="52.7724" y1="23.808" x2="20.2968" y2="51.1329" gradientUnits="userSpaceOnUse">
<stop stop-color="#B6509E"/>
<stop offset="1" stop-color="#2EBAC6"/>
</linearGradient>
<linearGradient id="paint1_linear_69_8622" x1="56.7724" y1="26.808" x2="24.2968" y2="54.1329" gradientUnits="userSpaceOnUse">
<stop stop-color="#B6509E"/>
<stop offset="1" stop-color="#2EBAC6"/>
</linearGradient>
</defs>
</svg>
